<?xml version="1.0" encoding="UTF-8"?> <!-- Generator: Adobe Illustrator 24.1.0, SVG Export Plug-In . SVG Version: 6.00 Build 0) --> <svg xmlns="http://www.w3.org/2000/svg" xmlns:xlink="http://www.w3.org/1999/xlink" version="1.1" id="Layer_1" x="0px" y="0px" viewBox="0 0 867.7 502.8" style="enable-background:new 0 0 867.7 502.8;" xml:space="preserve"> <style type="text/css"> .st0{fill:#343750;} .st1{fill:#FF2948;} .st2{fill:#FAA204;} </style> <g> <path class="st0" d="M82.2,463.9c2.9,3.9,4.4,8.5,4.4,14c0,8-3.2,14.1-9.6,18.5c-6.4,4.3-15.7,6.5-27.8,6.5H0v-91h46.5 c11.6,0,20.5,2.1,26.5,6.4c6.1,4.3,9.1,10.1,9.1,17.4c0,4.3-1.1,8.2-3.2,11.6c-2.1,3.4-5.1,6.1-9,8.1 C75.1,457.2,79.2,460,82.2,463.9z M25.5,430.4V448h17.7c8.7,0,13-2.9,13-8.8c0-5.8-4.3-8.7-13-8.7H25.5z M60.6,475 c0-6.2-4.5-9.2-13.5-9.2H25.5v18.5h21.6C56.1,484.2,60.6,481.2,60.6,475z"></path> <path class="st0" d="M176.1,478.6h-14v24.2h-25.7v-91H178c8.2,0,15.4,1.4,21.4,4.1c6.1,2.7,10.7,6.6,14,11.7 c3.3,5.1,4.9,11,4.9,17.9c0,6.6-1.5,12.3-4.6,17.2c-3.1,4.9-7.5,8.7-13.2,11.5l19.6,28.6h-27.6L176.1,478.6z M188.4,435.6 c-2.7-2.3-6.7-3.5-12-3.5h-14.3v26.7h14.3c5.3,0,9.3-1.1,12-3.4c2.7-2.3,4-5.6,4-9.8C192.4,441.2,191.1,438,188.4,435.6z"></path> <path class="st0" d="M342,482.9v19.9H269v-91h71.4v19.9h-45.9v15.3h40.4v19.2h-40.4v16.6H342z"></path> <path class="st0" d="M479.3,411.8v91h-21.2l-40.2-48.5v48.5h-25.2v-91h21.2l40.2,48.5v-48.5H479.3z"></path> <path class="st0" d="M533.9,411.8h43c10,0,18.8,1.9,26.5,5.6c7.7,3.7,13.7,9,17.9,15.9c4.2,6.8,6.4,14.9,6.4,24 c0,9.2-2.1,17.2-6.4,24c-4.2,6.8-10.2,12.1-17.9,15.9c-7.7,3.7-16.6,5.6-26.5,5.6h-43V411.8z M575.9,482.3c7.8,0,14.1-2.2,18.8-6.6 c4.7-4.4,7.1-10.5,7.1-18.3s-2.4-13.9-7.1-18.3c-4.7-4.4-11-6.6-18.8-6.6h-16.2v49.9H575.9z"></path> <path class="st0" d="M677.7,411.8h25.7v70.6h43.4v20.4h-69.2V411.8z"></path> <path class="st0" d="M832.9,470.2v32.6h-25.7v-33l-34.7-58h27.2l21.6,36.1l21.6-36.1h25L832.9,470.2z"></path> </g> <g> <path class="st0" d="M359.8,83.7l0-49.6l-0.1-0.1c0.1-0.5,0.1-1.1,0.1-1.6c0-17.6-14.2-31.9-31.8-32.1L327.8,0h-32.1l0,39.3l13.2,0 c4.4,0,8,3.6,8,8l0,62.4c1.4,17.2,11.2,32,25.3,40.3c-14.1,8.3-23.9,23.1-25.3,40.3l0,88.5c0,4.4-3.6,8-8,8h-13.2l0,39.3h32.1 l0.3-0.3c17.6-0.2,31.8-14.5,31.8-32.1c0-0.5,0-1-0.1-1.6l0.1-0.1l0-66.9l0,0l0,0c0.5-30,14.3-56.8,35.7-74.7 C374.3,135.7,360.3,111.3,359.8,83.7z"></path> <path class="st1" d="M503.3,137.6c-15.1,16.7-36.9,27.1-61.1,27.1c-17.3,0-33.4-5.3-46.6-14.5c-21.5,17.9-35.3,44.7-35.7,74.7l0,0 l0,0l0,66.9l-0.1,0.1c0.1,0.5,0.1,1.1,0.1,1.6c0,17.6-14.2,31.9-31.8,32.1l-0.3,0.3h131.4c54.9,0,99.3-44.5,99.3-99.3 C558.5,187.6,536,153.9,503.3,137.6z"></path> <path class="st2" d="M442.2,0H327.8l0.3,0.3c17.6,0.2,31.8,14.5,31.8,32.1c0,0.5,0,1-0.1,1.6l0.1,0.1l0,49.6c0,0,0,0,0,0 c0.1,6.9,1.1,13.6,2.8,20c0,0,0,0,0,0c0.2,0.8,0.4,1.6,0.7,2.4c0,0,0,0,0,0c0.2,0.8,0.5,1.5,0.7,2.3c0,0,0,0,0,0.1 c0.3,0.8,0.5,1.5,0.8,2.3c0,0,0,0.1,0,0.1c0.3,0.7,0.6,1.5,0.8,2.2c0,0,0,0.1,0.1,0.1c0.3,0.7,0.6,1.4,0.9,2.1c0,0.1,0,0.1,0.1,0.2 c0.3,0.7,0.6,1.4,0.9,2.1c0,0.1,0.1,0.1,0.1,0.2c0.3,0.7,0.6,1.3,1,2c0,0.1,0.1,0.2,0.1,0.2c0.3,0.6,0.7,1.3,1,1.9 c0.1,0.1,0.1,0.2,0.2,0.3c0.3,0.6,0.7,1.2,1,1.8c0.1,0.1,0.1,0.2,0.2,0.3c0.3,0.6,0.7,1.2,1.1,1.7c0.1,0.1,0.2,0.2,0.2,0.4 c0.4,0.6,0.7,1.1,1.1,1.7c0.1,0.1,0.2,0.3,0.3,0.4c0.4,0.5,0.7,1.1,1.1,1.6c0.1,0.2,0.2,0.3,0.3,0.5c0.4,0.5,0.7,1,1.1,1.5 c0.1,0.2,0.3,0.3,0.4,0.5c0.4,0.5,0.7,0.9,1.1,1.4c0.1,0.2,0.3,0.4,0.4,0.5c0.4,0.4,0.7,0.9,1.1,1.3c0.2,0.2,0.3,0.4,0.5,0.6 c0.4,0.4,0.7,0.8,1.1,1.2c0.2,0.2,0.4,0.4,0.6,0.6c0.4,0.4,0.7,0.8,1.1,1.2c0.2,0.2,0.4,0.4,0.6,0.7c0.3,0.4,0.7,0.7,1.1,1.1 c0.2,0.2,0.5,0.5,0.7,0.7c0.3,0.3,0.7,0.7,1,1c0.3,0.2,0.5,0.5,0.8,0.7c0.3,0.3,0.7,0.6,1,0.9c0.3,0.3,0.6,0.5,0.9,0.8 c0.3,0.3,0.6,0.5,0.9,0.8c0.3,0.3,0.7,0.6,1,0.8c0.3,0.2,0.6,0.5,0.9,0.7c0.4,0.3,0.8,0.6,1.2,0.9c0.2,0.2,0.5,0.4,0.7,0.5 c0.7,0.5,1.3,0.9,2,1.4c17.2-14.4,39.4-23,63.6-23c15.9,0,30.9,3.7,44.2,10.3c13.2-14.6,21.3-34,21.3-55.2 C524.6,36.9,487.7,0,442.2,0z"></path> </g> </svg> 